Complete name                            : Vazhakku Enn 189 (2012) DVD-Rip - Xvid - 700MB- Team DON.avi
Format                                   : AVI
Format/Info                              : Audio Video Interleave
File size                                : 805 MiB
Duration                                 : 2h 3mn
Overall bit rate                         : 911 Kbps

Video
ID                                       : 0
Format                                   : MPEG-4 Visual
Format profile                           : Advanced Simple@L5
Format settings, BVOP                    : 2
Format settings, QPel                    : No
Format settings, GMC                     : No warppoints
Format settings, Matrix                  : Default (H.263)
Codec ID                                 : XVID
Codec ID/Hint                            : XviD
Duration                                 : 2h 3mn
Bit rate                                 : 770 Kbps
Width                                    : 608 pixels
Height                                   : 288 pixels
Display aspect ratio                     : 2.111
Frame rate                               : 29.970 fps
Color space                              : YUV
Chroma subsampling                       : 4:2:0
Bit depth                                : 8 bits
Scan type                                : Progressive
Compression mode                         : Lossy
Bits/(Pixel*Frame)                       : 0.147
Stream size                              : 680 MiB (84%)
Writing library                          : XviD 64

Audio
ID                                       : 1
Format                                   : MPEG Audio
Format version                           : Version 1
Format profile                           : Layer 3
Codec ID                                 : 55
Codec ID/Hint                            : MP3
Duration                                 : 2h 3mn
Source duration                          : 2h 3mn
Bit rate mode                            : Constant
Bit rate                                 : 128 Kbps
Channel(s)                               : 2 channels
Sampling rate                            : 44.1 KHz
Compression mode                         : Lossy
Stream size                              : 113 MiB (14%)
Alignment                                : Split accross interleaves
Interleave, duration                     : 26 ms (0.78 video frame)
